<mxfile host="app.diagrams.net" agent="Mozilla/5.0 (Windows NT 10.0; Win64; x64; rv:136.0) Gecko/20100101 Firefox/136.0" version="26.1.1">
  <diagram name="Страница — 1" id="KefnkcjTTkyAoQHHRGpI">
    <mxGraphModel dx="1877" dy="1735" grid="1" gridSize="10" guides="1" tooltips="1" connect="1" arrows="1" fold="1" page="1" pageScale="1" pageWidth="827" pageHeight="1169" math="0" shadow="0">
      <root>
        <mxCell id="0" />
        <mxCell id="1" parent="0" />
        <mxCell id="ZMzWTa24y0KxGMYCzDrT-10" value="" style="rounded=0;whiteSpace=wrap;html=1;imageAspect=1;" parent="1" vertex="1">
          <mxGeometry x="-290" y="-120" width="955" height="500" as="geometry" />
        </mxCell>
        <mxCell id="ZMzWTa24y0KxGMYCzDrT-11" value="Авторизация" style="ellipse;whiteSpace=wrap;html=1;" parent="1" vertex="1">
          <mxGeometry x="200" y="-70" width="90" height="60" as="geometry" />
        </mxCell>
        <mxCell id="ZMzWTa24y0KxGMYCzDrT-12" value="Регистрация" style="ellipse;whiteSpace=wrap;html=1;" parent="1" vertex="1">
          <mxGeometry x="100" y="-20" width="90" height="60" as="geometry" />
        </mxCell>
        <mxCell id="ZMzWTa24y0KxGMYCzDrT-13" value="Постороение маршрутов" style="ellipse;whiteSpace=wrap;html=1;" parent="1" vertex="1">
          <mxGeometry x="260" y="210" width="90" height="60" as="geometry" />
        </mxCell>
        <mxCell id="ZMzWTa24y0KxGMYCzDrT-14" value="Использование фильтров" style="ellipse;whiteSpace=wrap;html=1;" parent="1" vertex="1">
          <mxGeometry x="160" y="210" width="100" height="60" as="geometry" />
        </mxCell>
        <mxCell id="ZMzWTa24y0KxGMYCzDrT-15" value="Просмотр карты" style="ellipse;whiteSpace=wrap;html=1;" parent="1" vertex="1">
          <mxGeometry x="400" y="60" width="90" height="60" as="geometry" />
        </mxCell>
        <mxCell id="ZMzWTa24y0KxGMYCzDrT-16" value="" style="endArrow=none;html=1;rounded=0;" parent="1" source="ZMzWTa24y0KxGMYCzDrT-14" target="iN62yS_0kWq-_cqrrTJ9-1" edge="1">
          <mxGeometry width="50" height="50" relative="1" as="geometry">
            <mxPoint x="500" y="260" as="sourcePoint" />
            <mxPoint x="120" y="165.48387096774195" as="targetPoint" />
          </mxGeometry>
        </mxCell>
        <mxCell id="ZMzWTa24y0KxGMYCzDrT-17" value="" style="endArrow=none;html=1;rounded=0;" parent="1" source="iN62yS_0kWq-_cqrrTJ9-1" target="ZMzWTa24y0KxGMYCzDrT-13" edge="1">
          <mxGeometry width="50" height="50" relative="1" as="geometry">
            <mxPoint x="120" y="157.9591836734694" as="sourcePoint" />
            <mxPoint x="550" y="210" as="targetPoint" />
          </mxGeometry>
        </mxCell>
        <mxCell id="ZMzWTa24y0KxGMYCzDrT-18" value="" style="endArrow=none;html=1;rounded=0;" parent="1" source="ZMzWTa24y0KxGMYCzDrT-15" target="iN62yS_0kWq-_cqrrTJ9-1" edge="1">
          <mxGeometry width="50" height="50" relative="1" as="geometry">
            <mxPoint x="500" y="260" as="sourcePoint" />
            <mxPoint x="120" y="148.23529411764707" as="targetPoint" />
          </mxGeometry>
        </mxCell>
        <mxCell id="ZMzWTa24y0KxGMYCzDrT-19" value="" style="endArrow=none;html=1;rounded=0;" parent="1" source="ZMzWTa24y0KxGMYCzDrT-11" target="iN62yS_0kWq-_cqrrTJ9-1" edge="1">
          <mxGeometry width="50" height="50" relative="1" as="geometry">
            <mxPoint x="500" y="260" as="sourcePoint" />
            <mxPoint x="120" y="144.5999999999999" as="targetPoint" />
          </mxGeometry>
        </mxCell>
        <mxCell id="ZMzWTa24y0KxGMYCzDrT-20" value="" style="endArrow=none;html=1;rounded=0;" parent="1" source="ZMzWTa24y0KxGMYCzDrT-12" target="iN62yS_0kWq-_cqrrTJ9-1" edge="1">
          <mxGeometry width="50" height="50" relative="1" as="geometry">
            <mxPoint x="500" y="260" as="sourcePoint" />
            <mxPoint x="120" y="136.45161290322585" as="targetPoint" />
          </mxGeometry>
        </mxCell>
        <mxCell id="ZMzWTa24y0KxGMYCzDrT-22" value="Восстановление аккаунта" style="ellipse;whiteSpace=wrap;html=1;" parent="1" vertex="1">
          <mxGeometry x="10" y="-110" width="100" height="60" as="geometry" />
        </mxCell>
        <mxCell id="ZMzWTa24y0KxGMYCzDrT-24" value="" style="endArrow=block;dashed=1;endFill=0;endSize=12;html=1;rounded=0;" parent="1" source="ZMzWTa24y0KxGMYCzDrT-22" target="ZMzWTa24y0KxGMYCzDrT-12" edge="1">
          <mxGeometry width="160" relative="1" as="geometry">
            <mxPoint x="450" y="230" as="sourcePoint" />
            <mxPoint x="610" y="230" as="targetPoint" />
          </mxGeometry>
        </mxCell>
        <mxCell id="ZMzWTa24y0KxGMYCzDrT-25" value="Extend" style="edgeLabel;html=1;align=center;verticalAlign=middle;resizable=0;points=[];" parent="ZMzWTa24y0KxGMYCzDrT-24" vertex="1" connectable="0">
          <mxGeometry x="-0.0395" y="1" relative="1" as="geometry">
            <mxPoint as="offset" />
          </mxGeometry>
        </mxCell>
        <mxCell id="ZMzWTa24y0KxGMYCzDrT-26" value="" style="endArrow=block;dashed=1;endFill=0;endSize=12;html=1;rounded=0;" parent="1" source="ZMzWTa24y0KxGMYCzDrT-22" target="ZMzWTa24y0KxGMYCzDrT-11" edge="1">
          <mxGeometry width="160" relative="1" as="geometry">
            <mxPoint x="450" y="230" as="sourcePoint" />
            <mxPoint x="610" y="230" as="targetPoint" />
          </mxGeometry>
        </mxCell>
        <mxCell id="ZMzWTa24y0KxGMYCzDrT-28" value="Extend" style="edgeLabel;html=1;align=center;verticalAlign=middle;resizable=0;points=[];" parent="ZMzWTa24y0KxGMYCzDrT-26" vertex="1" connectable="0">
          <mxGeometry x="-0.063" relative="1" as="geometry">
            <mxPoint as="offset" />
          </mxGeometry>
        </mxCell>
        <mxCell id="ZMzWTa24y0KxGMYCzDrT-29" value="Получение уведомлений" style="ellipse;whiteSpace=wrap;html=1;" parent="1" vertex="1">
          <mxGeometry x="369" y="120" width="90" height="60" as="geometry" />
        </mxCell>
        <mxCell id="ZMzWTa24y0KxGMYCzDrT-30" value="" style="endArrow=none;html=1;rounded=0;" parent="1" source="ZMzWTa24y0KxGMYCzDrT-29" target="iN62yS_0kWq-_cqrrTJ9-1" edge="1">
          <mxGeometry width="50" height="50" relative="1" as="geometry">
            <mxPoint x="500" y="260" as="sourcePoint" />
            <mxPoint x="120" y="151.32352941176464" as="targetPoint" />
          </mxGeometry>
        </mxCell>
        <mxCell id="ZMzWTa24y0KxGMYCzDrT-31" value="Смена настроек" style="ellipse;whiteSpace=wrap;html=1;" parent="1" vertex="1">
          <mxGeometry x="334" y="180" width="80" height="50" as="geometry" />
        </mxCell>
        <mxCell id="ZMzWTa24y0KxGMYCzDrT-32" value="" style="endArrow=none;html=1;rounded=0;" parent="1" source="ZMzWTa24y0KxGMYCzDrT-31" target="iN62yS_0kWq-_cqrrTJ9-1" edge="1">
          <mxGeometry width="50" height="50" relative="1" as="geometry">
            <mxPoint x="500" y="230" as="sourcePoint" />
            <mxPoint x="120" y="154.31818181818176" as="targetPoint" />
          </mxGeometry>
        </mxCell>
        <mxCell id="iN62yS_0kWq-_cqrrTJ9-1" value="Гость" style="shape=umlActor;verticalLabelPosition=bottom;verticalAlign=top;html=1;outlineConnect=0;" vertex="1" parent="1">
          <mxGeometry x="130" y="70" width="30" height="60" as="geometry" />
        </mxCell>
        <mxCell id="iN62yS_0kWq-_cqrrTJ9-4" value="Пользователь" style="shape=umlActor;verticalLabelPosition=bottom;verticalAlign=top;html=1;outlineConnect=0;" vertex="1" parent="1">
          <mxGeometry x="20" y="70" width="30" height="60" as="geometry" />
        </mxCell>
        <mxCell id="iN62yS_0kWq-_cqrrTJ9-5" value="" style="endArrow=block;html=1;rounded=0;endFill=0;startSize=12;endSize=12;" edge="1" parent="1" source="iN62yS_0kWq-_cqrrTJ9-4" target="iN62yS_0kWq-_cqrrTJ9-1">
          <mxGeometry width="50" height="50" relative="1" as="geometry">
            <mxPoint x="140" y="170" as="sourcePoint" />
            <mxPoint x="190" y="120" as="targetPoint" />
          </mxGeometry>
        </mxCell>
        <mxCell id="iN62yS_0kWq-_cqrrTJ9-6" value="Выход из аккаунта" style="ellipse;whiteSpace=wrap;html=1;" vertex="1" parent="1">
          <mxGeometry x="-75" width="90" height="50" as="geometry" />
        </mxCell>
        <mxCell id="iN62yS_0kWq-_cqrrTJ9-7" value="" style="endArrow=none;html=1;rounded=0;" edge="1" parent="1" source="iN62yS_0kWq-_cqrrTJ9-6" target="iN62yS_0kWq-_cqrrTJ9-4">
          <mxGeometry width="50" height="50" relative="1" as="geometry">
            <mxPoint x="254" y="42" as="sourcePoint" />
            <mxPoint x="170" y="100" as="targetPoint" />
          </mxGeometry>
        </mxCell>
        <mxCell id="iN62yS_0kWq-_cqrrTJ9-8" value="Оставлять комментарии об инцидентах на дорогах" style="ellipse;whiteSpace=wrap;html=1;" vertex="1" parent="1">
          <mxGeometry x="-170" y="50" width="95" height="60" as="geometry" />
        </mxCell>
        <mxCell id="iN62yS_0kWq-_cqrrTJ9-9" value="Добавление точек в избранное" style="ellipse;whiteSpace=wrap;html=1;" vertex="1" parent="1">
          <mxGeometry x="-165" y="130" width="90" height="50" as="geometry" />
        </mxCell>
        <mxCell id="iN62yS_0kWq-_cqrrTJ9-10" value="" style="endArrow=block;dashed=1;endFill=0;endSize=12;html=1;rounded=0;" edge="1" parent="1" source="ZMzWTa24y0KxGMYCzDrT-22" target="iN62yS_0kWq-_cqrrTJ9-6">
          <mxGeometry width="160" relative="1" as="geometry">
            <mxPoint x="180" y="-71" as="sourcePoint" />
            <mxPoint x="165" y="-29" as="targetPoint" />
          </mxGeometry>
        </mxCell>
        <mxCell id="iN62yS_0kWq-_cqrrTJ9-11" value="Extend" style="edgeLabel;html=1;align=center;verticalAlign=middle;resizable=0;points=[];" vertex="1" connectable="0" parent="iN62yS_0kWq-_cqrrTJ9-10">
          <mxGeometry x="-0.0395" y="1" relative="1" as="geometry">
            <mxPoint as="offset" />
          </mxGeometry>
        </mxCell>
        <mxCell id="iN62yS_0kWq-_cqrrTJ9-12" value="" style="endArrow=none;html=1;rounded=0;" edge="1" parent="1" source="iN62yS_0kWq-_cqrrTJ9-9" target="iN62yS_0kWq-_cqrrTJ9-4">
          <mxGeometry width="50" height="50" relative="1" as="geometry">
            <mxPoint x="-12" y="210" as="sourcePoint" />
            <mxPoint x="82" y="307" as="targetPoint" />
          </mxGeometry>
        </mxCell>
        <mxCell id="iN62yS_0kWq-_cqrrTJ9-13" value="" style="endArrow=none;html=1;rounded=0;" edge="1" parent="1" source="iN62yS_0kWq-_cqrrTJ9-8" target="iN62yS_0kWq-_cqrrTJ9-4">
          <mxGeometry width="50" height="50" relative="1" as="geometry">
            <mxPoint x="-110" y="43" as="sourcePoint" />
            <mxPoint x="-16" y="140" as="targetPoint" />
          </mxGeometry>
        </mxCell>
        <mxCell id="iN62yS_0kWq-_cqrrTJ9-14" value="Оставлять жалобу о расписании транспорта" style="ellipse;whiteSpace=wrap;html=1;" vertex="1" parent="1">
          <mxGeometry x="310" y="-110" width="100" height="70" as="geometry" />
        </mxCell>
        <mxCell id="iN62yS_0kWq-_cqrrTJ9-15" value="" style="endArrow=none;html=1;rounded=0;" edge="1" parent="1" source="iN62yS_0kWq-_cqrrTJ9-14" target="iN62yS_0kWq-_cqrrTJ9-1">
          <mxGeometry width="50" height="50" relative="1" as="geometry">
            <mxPoint x="320" y="60" as="sourcePoint" />
            <mxPoint x="170" y="60" as="targetPoint" />
          </mxGeometry>
        </mxCell>
        <mxCell id="iN62yS_0kWq-_cqrrTJ9-16" value="Просмотр дорожных событий" style="ellipse;whiteSpace=wrap;html=1;" vertex="1" parent="1">
          <mxGeometry x="550" y="30" width="90" height="60" as="geometry" />
        </mxCell>
        <mxCell id="iN62yS_0kWq-_cqrrTJ9-17" value="Просмотр маршрутов" style="ellipse;whiteSpace=wrap;html=1;" vertex="1" parent="1">
          <mxGeometry x="550" y="110" width="90" height="60" as="geometry" />
        </mxCell>
        <mxCell id="iN62yS_0kWq-_cqrrTJ9-18" value="Просмотр информации о выбранной точке" style="ellipse;whiteSpace=wrap;html=1;" vertex="1" parent="1">
          <mxGeometry x="520" y="175" width="90" height="60" as="geometry" />
        </mxCell>
        <mxCell id="iN62yS_0kWq-_cqrrTJ9-19" value="" style="endArrow=block;dashed=1;endFill=0;endSize=12;html=1;rounded=0;" edge="1" parent="1" source="iN62yS_0kWq-_cqrrTJ9-16" target="ZMzWTa24y0KxGMYCzDrT-15">
          <mxGeometry width="160" relative="1" as="geometry">
            <mxPoint x="95" y="-38" as="sourcePoint" />
            <mxPoint x="25" y="6" as="targetPoint" />
          </mxGeometry>
        </mxCell>
        <mxCell id="iN62yS_0kWq-_cqrrTJ9-20" value="Extend" style="edgeLabel;html=1;align=center;verticalAlign=middle;resizable=0;points=[];" vertex="1" connectable="0" parent="iN62yS_0kWq-_cqrrTJ9-19">
          <mxGeometry x="-0.0395" y="1" relative="1" as="geometry">
            <mxPoint as="offset" />
          </mxGeometry>
        </mxCell>
        <mxCell id="iN62yS_0kWq-_cqrrTJ9-21" value="" style="endArrow=block;dashed=1;endFill=0;endSize=12;html=1;rounded=0;" edge="1" parent="1" source="iN62yS_0kWq-_cqrrTJ9-18" target="ZMzWTa24y0KxGMYCzDrT-15">
          <mxGeometry width="160" relative="1" as="geometry">
            <mxPoint x="553" y="71" as="sourcePoint" />
            <mxPoint x="421" y="108" as="targetPoint" />
          </mxGeometry>
        </mxCell>
        <mxCell id="iN62yS_0kWq-_cqrrTJ9-22" value="Extend" style="edgeLabel;html=1;align=center;verticalAlign=middle;resizable=0;points=[];" vertex="1" connectable="0" parent="iN62yS_0kWq-_cqrrTJ9-21">
          <mxGeometry x="-0.0395" y="1" relative="1" as="geometry">
            <mxPoint as="offset" />
          </mxGeometry>
        </mxCell>
        <mxCell id="iN62yS_0kWq-_cqrrTJ9-23" value="" style="endArrow=block;dashed=1;endFill=0;endSize=12;html=1;rounded=0;" edge="1" parent="1" source="iN62yS_0kWq-_cqrrTJ9-17" target="ZMzWTa24y0KxGMYCzDrT-15">
          <mxGeometry width="160" relative="1" as="geometry">
            <mxPoint x="563" y="81" as="sourcePoint" />
            <mxPoint x="431" y="118" as="targetPoint" />
          </mxGeometry>
        </mxCell>
        <mxCell id="iN62yS_0kWq-_cqrrTJ9-24" value="Extend" style="edgeLabel;html=1;align=center;verticalAlign=middle;resizable=0;points=[];" vertex="1" connectable="0" parent="iN62yS_0kWq-_cqrrTJ9-23">
          <mxGeometry x="-0.0395" y="1" relative="1" as="geometry">
            <mxPoint as="offset" />
          </mxGeometry>
        </mxCell>
        <mxCell id="iN62yS_0kWq-_cqrrTJ9-25" value="Поиск остановок" style="ellipse;whiteSpace=wrap;html=1;" vertex="1" parent="1">
          <mxGeometry x="400" y="10" width="100" height="50" as="geometry" />
        </mxCell>
        <mxCell id="iN62yS_0kWq-_cqrrTJ9-26" value="Указывать время отправления" style="ellipse;whiteSpace=wrap;html=1;" vertex="1" parent="1">
          <mxGeometry x="380" y="-50" width="100" height="60" as="geometry" />
        </mxCell>
        <mxCell id="iN62yS_0kWq-_cqrrTJ9-28" value="" style="endArrow=none;html=1;rounded=0;" edge="1" parent="1" source="iN62yS_0kWq-_cqrrTJ9-26" target="iN62yS_0kWq-_cqrrTJ9-1">
          <mxGeometry width="50" height="50" relative="1" as="geometry">
            <mxPoint x="400.0030329147256" y="-19.90199186129894" as="sourcePoint" />
            <mxPoint x="179.88" y="80" as="targetPoint" />
          </mxGeometry>
        </mxCell>
        <mxCell id="iN62yS_0kWq-_cqrrTJ9-29" value="" style="endArrow=none;html=1;rounded=0;" edge="1" parent="1" source="iN62yS_0kWq-_cqrrTJ9-25" target="iN62yS_0kWq-_cqrrTJ9-1">
          <mxGeometry width="50" height="50" relative="1" as="geometry">
            <mxPoint x="410" y="26" as="sourcePoint" />
            <mxPoint x="210" y="90" as="targetPoint" />
          </mxGeometry>
        </mxCell>
        <mxCell id="iN62yS_0kWq-_cqrrTJ9-30" value="Просмотр информации о транспорте" style="ellipse;whiteSpace=wrap;html=1;" vertex="1" parent="1">
          <mxGeometry x="550" y="-45" width="100" height="50" as="geometry" />
        </mxCell>
        <mxCell id="iN62yS_0kWq-_cqrrTJ9-31" value="" style="endArrow=block;dashed=1;endFill=0;endSize=12;html=1;rounded=0;" edge="1" parent="1" source="iN62yS_0kWq-_cqrrTJ9-30" target="ZMzWTa24y0KxGMYCzDrT-15">
          <mxGeometry width="160" relative="1" as="geometry">
            <mxPoint x="578" y="-84" as="sourcePoint" />
            <mxPoint x="500" y="-140" as="targetPoint" />
          </mxGeometry>
        </mxCell>
        <mxCell id="iN62yS_0kWq-_cqrrTJ9-32" value="Extend" style="edgeLabel;html=1;align=center;verticalAlign=middle;resizable=0;points=[];" vertex="1" connectable="0" parent="iN62yS_0kWq-_cqrrTJ9-31">
          <mxGeometry x="-0.0395" y="1" relative="1" as="geometry">
            <mxPoint as="offset" />
          </mxGeometry>
        </mxCell>
        <mxCell id="iN62yS_0kWq-_cqrrTJ9-33" value="Отправка отзыва о работе приожения" style="ellipse;whiteSpace=wrap;html=1;" vertex="1" parent="1">
          <mxGeometry x="-10" y="210" width="110" height="50" as="geometry" />
        </mxCell>
        <mxCell id="iN62yS_0kWq-_cqrrTJ9-34" value="" style="endArrow=none;html=1;rounded=0;" edge="1" parent="1" source="iN62yS_0kWq-_cqrrTJ9-33" target="iN62yS_0kWq-_cqrrTJ9-4">
          <mxGeometry width="50" height="50" relative="1" as="geometry">
            <mxPoint x="-16" y="223.5" as="sourcePoint" />
            <mxPoint x="86" y="186.5" as="targetPoint" />
          </mxGeometry>
        </mxCell>
        <mxCell id="iN62yS_0kWq-_cqrrTJ9-35" value="Редактирование учетной записи" style="ellipse;whiteSpace=wrap;html=1;" vertex="1" parent="1">
          <mxGeometry x="-120" y="190" width="100" height="60" as="geometry" />
        </mxCell>
        <mxCell id="iN62yS_0kWq-_cqrrTJ9-36" value="" style="endArrow=block;dashed=1;endFill=0;endSize=12;html=1;rounded=0;" edge="1" parent="1" source="iN62yS_0kWq-_cqrrTJ9-38" target="iN62yS_0kWq-_cqrrTJ9-35">
          <mxGeometry width="160" relative="1" as="geometry">
            <mxPoint x="-192" y="240" as="sourcePoint" />
            <mxPoint x="-260" y="175" as="targetPoint" />
          </mxGeometry>
        </mxCell>
        <mxCell id="iN62yS_0kWq-_cqrrTJ9-37" value="Extend" style="edgeLabel;html=1;align=center;verticalAlign=middle;resizable=0;points=[];" vertex="1" connectable="0" parent="iN62yS_0kWq-_cqrrTJ9-36">
          <mxGeometry x="-0.0395" y="1" relative="1" as="geometry">
            <mxPoint as="offset" />
          </mxGeometry>
        </mxCell>
        <mxCell id="iN62yS_0kWq-_cqrrTJ9-38" value="Изменение данных учетной записи" style="ellipse;whiteSpace=wrap;html=1;" vertex="1" parent="1">
          <mxGeometry x="-280" y="230" width="100" height="65" as="geometry" />
        </mxCell>
      </root>
    </mxGraphModel>
  </diagram>
</mxfile>
